<svg width="266" height="465" xmlns="http://www.w3.org/2000/svg" xmlns:xlink="http://www.w3.org/1999/xlink">
 <defs>
  <filter id="filter11073">
   <feGaussianBlur id="feGaussianBlur11075" stdDeviation="1.315799"/>
  </filter>
  <clipPath id="clipPath11111">
   <rect fill="#6b6b6b" stroke-width="15.117" stroke-miterlimit="4" id="rect11113" y="171.44321" x="-527.101844" height="36.416" width="36.416"/>
  </clipPath>
  <filter id="filter11105">
   <feGaussianBlur id="feGaussianBlur11107" stdDeviation="1.417014"/>
  </filter>
  <clipPath id="clipPath11115">
   <rect fill="#6b6b6b" stroke-width="15.117" stroke-miterlimit="4" id="rect11117" y="171.44321" x="-527.101844" height="36.416" width="36.416"/>
  </clipPath>
  <clipPath id="clipPath11119">
   <rect fill="#6b6b6b" stroke-width="15.117" stroke-miterlimit="4" id="rect11121" y="171.44321" x="-527.101844" height="36.416" width="36.416"/>
  </clipPath>
  <filter id="filter6541">
   <feGaussianBlur id="feGaussianBlur6543" stdDeviation="3.106904"/>
  </filter>
  <clipPath id="clipPath4786">
   <path fill="#666666" fill-rule="evenodd" stroke-width="1.72443" stroke-miterlimit="4" id="path4788" d="m-549.796714,117.77485c-2.44614,-4.22389 -6.01225,-7.99789 -10.19403,-10.24349c-11.63626,-6.24862 -33.44495,-4.54805 -59.39237,51.32805c-0.16338,0.32811 -11.32965,29.54779 -12.60202,32.77601c-2.03578,5.16517 -21.82564,33.53819 -31.28975,38.00486c0,0 3.17772,-7.64571 -1.14134,-15.12657c-4.31909,-7.48088 -8.824,-9.81336 -16.23971,-3.537c-7.41569,6.27636 -0.7317,27.14316 10.90456,33.39178c11.63627,6.24863 33.35073,5.68853 59.29814,-50.18758c0.17156,-0.34451 11.43788,-30.72377 12.69626,-33.91648c2.02783,-5.14498 21.64921,-33.2932 31.15599,-37.92764c-0.23473,0.613 -2.75276,9.91659 1.43135,17.16367c4.31907,7.48086 9.93053,6.35329 17.34623,0.07694c4.75068,-4.02079 2.38722,-14.27301 -1.97331,-21.80255z"/>
  </clipPath>
  <filter id="filter3321">
   <feGaussianBlur stdDeviation="3.84278" id="feGaussianBlur3323"/>
  </filter>
  <filter id="filter6450" height="1.121602" y="-0.060801" width="1.23384" x="-0.11692">
   <feGaussianBlur id="feGaussianBlur6452" stdDeviation="10.629343"/>
  </filter>
  <clipPath id="clipPath6461">
   <path fill="#c3c3c3" fill-rule="nonzero" stroke="url(#linearGradient6465)" stroke-width="5.316681" marker-start="none" marker-mid="none" marker-end="none" stroke-miterlimit="4" stroke-dashoffset="0" id="path6463" d="m-61.914701,-204.995178l-18.15625,36.71875c0,0 86.62225,86.50154 107.09375,192.625c3.25777,-1.81784 7.00684,-2.84375 11,-2.84375c12.46549,0 22.58608,10.09705 22.625,22.5625l0,0.0625c-0.00001,12.49033 -10.13467,22.625 -22.625,22.625c-2.33121,0 -4.57085,-0.34436 -6.6875,-1c0.15908,15.59682 -1.40731,31.39864 -5.125,47.25c20.21302,5.52426 76.63677,11.45003 107.34375,84.65625c21.88936,-75.16583 -12.90541,-263.97786 -195.46875,-402.65625z"/>
  </clipPath>
  <clipPath id="clipPath6467">
   <path fill="#c3c3c3" fill-rule="nonzero" stroke="url(#linearGradient6471)" stroke-width="5.316681" marker-start="none" marker-mid="none" marker-end="none" stroke-miterlimit="4" stroke-dashoffset="0" id="path6469" d="m-602.378594,159.27233l-18.15625,36.71875c0,0 86.62225,86.50154 107.09375,192.625c3.25777,-1.81784 7.00684,-2.84375 11,-2.84375c12.46549,0 22.58608,10.09705 22.625,22.5625l0,0.0625c-0.00001,12.49033 -10.13467,22.625 -22.625,22.625c-2.33121,0 -4.57085,-0.34436 -6.6875,-1c0.15908,15.59682 -1.40731,31.39864 -5.125,47.25c20.21302,5.52426 76.63677,11.45003 107.34375,84.65625c21.88936,-75.16583 -12.90541,-263.97786 -195.46875,-402.65625z"/>
  </clipPath>
  <filter id="filter6426">
   <feGaussianBlur id="feGaussianBlur6428" stdDeviation="3.105459"/>
  </filter>
  <clipPath id="clipPath32069">
   <path opacity="0.484733" fill="#db8940" fill-rule="evenodd" stroke-width="18.700001" stroke-miterlimit="4" id="path32071" d="m480.55667,24.5625c-91.8142,28.70498 -163.05825,9.18302 -232.4375,2.25c-69.37925,-6.93302 -137.40466,0.84776 -211.78126,84.90625l14,12.40625c71.1524,-80.41459 128.8354,-85.39296 195.93751,-78.6875c67.10211,6.70547 143.11455,27.22014 239.875,-3.03125l-5.59375,-17.84375z"/>
  </clipPath>
  <clipPath id="clipPath32065">
   <path opacity="0.484733" fill="#db8940" fill-rule="evenodd" stroke-width="18.700001" stroke-miterlimit="4" id="path32067" d="m480.55667,24.5625c-91.8142,28.70498 -163.05825,9.18302 -232.4375,2.25c-69.37925,-6.93302 -137.40466,0.84776 -211.78126,84.90625l14,12.40625c71.1524,-80.41459 128.8354,-85.39296 195.93751,-78.6875c67.10211,6.70547 143.11455,27.22014 239.875,-3.03125l-5.59375,-17.84375z"/>
  </clipPath>
  <clipPath id="clipPath32061">
   <path opacity="0.484733" fill="#db8940" fill-rule="evenodd" stroke-width="18.700001" stroke-miterlimit="4" id="path32063" d="m480.55667,24.5625c-91.8142,28.70498 -163.05825,9.18302 -232.4375,2.25c-69.37925,-6.93302 -137.40466,0.84776 -211.78126,84.90625l14,12.40625c71.1524,-80.41459 128.8354,-85.39296 195.93751,-78.6875c67.10211,6.70547 143.11455,27.22014 239.875,-3.03125l-5.59375,-17.84375z"/>
  </clipPath>
  <filter id="filter4333">
   <feGaussianBlur stdDeviation="4.595299" id="feGaussianBlur4335"/>
  </filter>
  <linearGradient id="linearGradient2361">
   <stop stop-color="#ffffff" id="stop2363" offset="0"/>
   <stop stop-color="#ffffff" stop-opacity="0" id="stop2365" offset="1"/>
  </linearGradient>
  <linearGradient id="linearGradient14086">
   <stop stop-color="#ffc154" id="stop14088" offset="0"/>
   <stop stop-color="#e41e18" id="stop14094" offset="0.718518"/>
   <stop stop-color="#a50000" id="stop14090" offset="1"/>
  </linearGradient>
  <linearGradient id="linearGradient5355">
   <stop stop-color="#ffffff" id="stop5357" offset="0"/>
   <stop stop-color="#ffffff" stop-opacity="0" id="stop5359" offset="1"/>
  </linearGradient>
  <linearGradient id="linearGradient14971">
   <stop stop-color="#502d16" id="stop14973" offset="0"/>
   <stop stop-color="#2a170b" id="stop14975" offset="1"/>
  </linearGradient>
  <linearGradient id="linearGradient13025">
   <stop stop-color="#ffffff" id="stop13029" offset="0"/>
   <stop stop-color="#bfbfbf" id="stop4382" offset="0.688889"/>
   <stop stop-color="#525252" id="stop13031" offset="1"/>
  </linearGradient>
  <linearGradient id="linearGradient6110">
   <stop stop-color="#6e6e6e" id="stop6112" offset="0"/>
   <stop stop-color="#ffffff" id="stop6118" offset="0.5"/>
   <stop stop-color="#a1a1a1" id="stop6114" offset="1"/>
  </linearGradient>
  <linearGradient id="linearGradient5113">
   <stop stop-color="#858585" id="stop5115" offset="0"/>
   <stop stop-color="#ffffff" id="stop5121" offset="0.5"/>
   <stop stop-color="#939393" id="stop5117" offset="1"/>
  </linearGradient>
  <linearGradient id="linearGradient4450">
   <stop stop-color="#ea0000" id="stop4452" offset="0"/>
   <stop stop-color="#730000" id="stop4454" offset="1"/>
  </linearGradient>
  <radialGradient gradientTransform="matrix(1,0,0,0.5929308,0,103.00665)" gradientUnits="userSpaceOnUse" xlink:href="#linearGradient4450" id="radialGradient4423" fy="253.04457" fx="254.82332" r="169.87473" cy="253.04457" cx="254.82332"/>
  <linearGradient spreadMethod="reflect" xlink:href="#linearGradient5113" id="linearGradient4425" y2="0.75534" x2="0.426023" y1="0.473122" x1="0.314078"/>
  <linearGradient spreadMethod="reflect" xlink:href="#linearGradient6110" id="linearGradient4427" y2="0.592875" x2="0.540837" y1="0.482284" x1="0.703888"/>
  <linearGradient spreadMethod="reflect" xlink:href="#linearGradient6110" id="linearGradient4429" y2="0.592875" x2="0.540837" y1="0.482284" x1="0.703888"/>
  <radialGradient gradientTransform="matrix(0.6368538,0.2626287,-0.6549943,1.5883093,281.88657,-244.82212)" gradientUnits="userSpaceOnUse" xlink:href="#linearGradient13025" id="radialGradient4431" fy="348.25116" fx="142.22385" r="7.704379" cy="348.25116" cx="142.22385"/>
  <linearGradient xlink:href="#linearGradient14971" id="linearGradient4433" y2="1.937731" x2="1.550464" y1="1.539724" x1="1.926187"/>
  <linearGradient xlink:href="#linearGradient14971" id="linearGradient4435" y2="1.791272" x2="1.38334" y1="1.393266" x1="1.759064"/>
  <linearGradient xlink:href="#linearGradient14971" id="linearGradient4437" y2="1.644816" x2="1.216216" y1="1.246809" x1="1.591939"/>
  <linearGradient xlink:href="#linearGradient14971" id="linearGradient4439" y2="1.498357" x2="1.049091" y1="1.10035" x1="1.424815"/>
  <linearGradient xlink:href="#linearGradient14971" id="linearGradient4441" y2="1.351899" x2="0.881966" y1="0.953892" x1="1.257689"/>
  <linearGradient xlink:href="#linearGradient14971" id="linearGradient4443" y2="1.205442" x2="0.714841" y1="0.807435" x1="1.090564"/>
  <linearGradient xlink:href="#linearGradient14971" id="linearGradient4445" y2="1.058983" x2="0.547716" y1="0.660976" x1="0.923439"/>
  <linearGradient xlink:href="#linearGradient14971" id="linearGradient4447" y2="0.912525" x2="0.380592" y1="0.514518" x1="0.756315"/>
  <linearGradient xlink:href="#linearGradient14971" id="linearGradient4449" y2="0.766067" x2="0.213467" y1="0.36806" x1="0.58919"/>
  <linearGradient xlink:href="#linearGradient14971" id="linearGradient4451" y2="0.619609" x2="0.046342" y1="0.221602" x1="0.422065"/>
  <linearGradient xlink:href="#linearGradient14971" id="linearGradient4453" y2="0.473151" x2="-0.120782" y1="0.075144" x1="0.254941"/>
  <linearGradient xlink:href="#linearGradient14971" id="linearGradient4455" y2="0.326693" x2="-0.287906" y1="-0.071314" x1="0.087816"/>
  <linearGradient xlink:href="#linearGradient14971" id="linearGradient4457" y2="0.180235" x2="-0.455032" y1="-0.217771" x1="-0.079309"/>
  <linearGradient xlink:href="#linearGradient14971" id="linearGradient4459" y2="0.033777" x2="-0.622157" y1="-0.36423" x1="-0.246434"/>
  <linearGradient xlink:href="#linearGradient14971" id="linearGradient4461" y2="-0.112681" x2="-0.78928" y1="-0.510687" x1="-0.413558"/>
  <linearGradient xlink:href="#linearGradient14971" id="linearGradient4463" y2="-0.259139" x2="-0.956407" y1="-0.657146" x1="-0.580684"/>
  <linearGradient xlink:href="#linearGradient14971" id="linearGradient4465" y2="-0.405597" x2="-1.123531" y1="-0.803604" x1="-0.747808"/>
  <linearGradient xlink:href="#linearGradient14971" id="linearGradient4467" y2="-0.552055" x2="-1.290654" y1="-0.950062" x1="-0.914932"/>
  <linearGradient xlink:href="#linearGradient14971" id="linearGradient4469" y2="-0.698513" x2="-1.457781" y1="-1.09652" x1="-1.082058"/>
  <linearGradient xlink:href="#linearGradient14971" id="linearGradient4471" y2="-0.844971" x2="-1.624906" y1="-1.242978" x1="-1.249183"/>
  <linearGradient xlink:href="#linearGradient14971" id="linearGradient4473" y2="-0.991429" x2="-1.79203" y1="-1.389436" x1="-1.416307"/>
  <linearGradient xlink:href="#linearGradient14971" id="linearGradient4475" y2="-1.137887" x2="-1.959153" y1="-1.535894" x1="-1.58343"/>
  <linearGradient xlink:href="#linearGradient14971" id="linearGradient4477" y2="-1.284346" x2="-2.12628" y1="-1.682353" x1="-1.750557"/>
  <linearGradient xlink:href="#linearGradient14971" id="linearGradient4479" y2="-1.430803" x2="-2.293405" y1="-1.82881" x1="-1.917682"/>
  <radialGradient gradientTransform="matrix(-3.972643,4.4492539,-6.0491044,-6.9544172,3359.3709,1040.8406)" gradientUnits="userSpaceOnUse" xlink:href="#linearGradient5355" id="radialGradient4481" fy="348.81863" fx="243.79347" r="1.042881" cy="348.81863" cx="243.79347"/>
  <radialGradient gradientTransform="matrix(1.4494299,0,0,1.4499062,301.66669,-377.63602)" gradientUnits="userSpaceOnUse" xlink:href="#linearGradient14086" id="radialGradient4483" fy="294.44315" fx="82.129753" r="34.702995" cy="294.44315" cx="82.129753"/>
  <linearGradient xlink:href="#linearGradient2361" id="linearGradient4485" y2="0.75701" x2="0.540318" y1="0.171266" x1="0.16002"/>
 </defs>
 <g>
  <title>background</title>
  <rect fill="none" id="canvas_background" height="467" width="268" y="-1" x="-1"/>
 </g>
 <g>
  <title>Layer 1</title>
  <g id="g4337" transform="rotate(-90 119.85107421875001,232.32534790039062) matrix(0.658246,0,0,0.658246,300.47258,71.37439) ">
   <path fill="#2e2e2e" fill-rule="nonzero" stroke-width="3.252" marker-start="none" marker-mid="none" marker-end="none" stroke-miterlimit="4" stroke-dashoffset="0" filter="url(#filter6426)" id="path5427" d="m76.93043,267.488972a349.346027,195.82849 0 1 1 -698.692053,0a349.346027,195.82849 0 1 1 698.692053,0z"/>
   <path fill="url(#radialGradient4423)" fill-rule="nonzero" stroke="url(#linearGradient4425)" stroke-width="3.252" marker-start="none" marker-mid="none" marker-end="none" stroke-miterlimit="4" stroke-dashoffset="0" id="path2502" d="m70.80439,259.320932a349.346027,195.82849 0 1 1 -698.692053,0a349.346027,195.82849 0 1 1 698.692053,0z"/>
   <g id="svg_1">
    <g opacity="0.677778" filter="url(#filter4333)" id="g3269">
     <path fill="#000000" fill-rule="nonzero" stroke="url(#linearGradient4427)" stroke-width="5.316681" marker-start="none" marker-mid="none" marker-end="none" stroke-miterlimit="4" stroke-dashoffset="0" id="path2686" clip-path="url(#clipPath6467)" d="m-401.591559,226.121777l18.915333,37.57199c0,0 124.465591,-17.655342 224.180644,31.082507c0.520254,-3.795541 1.993671,-7.505148 4.459571,-10.781497c7.697825,-10.227814 22.232134,-12.296419 32.483949,-4.630552l0.051281,0.038596c10.248188,7.713173 12.305121,22.287035 4.591956,32.53523c-1.439594,1.912735 -3.105185,3.537685 -4.950228,4.869498c12.895276,9.500995 24.893222,20.544315 35.603321,33.383348c17.014766,-13.173186 56.720212,-55.808979 135.747715,-35.796655c-48.155478,-64.37723 -224.560763,-152.425722 -451.08354,-88.272463z"/>
     <path fill="#000000" fill-rule="nonzero" stroke-width="3.3" marker-start="none" marker-mid="none" marker-end="none" stroke-miterlimit="4" stroke-dashoffset="0" id="path2692" d="m-545.005453,269.831169c2.26068,12.66344 -1.51815,23.93457 -8.44264,25.18187c-6.92448,1.24729 -14.37551,-8.00103 -16.647,-20.66254c-2.27149,-12.6615 1.49572,-23.94706 8.41666,-25.21412c6.92094,-1.26706 14.37783,7.96364 16.66013,20.62317"/>
     <path fill="#000000" fill-rule="nonzero" stroke="#5f3f31" stroke-width="1.265673" marker-start="none" marker-mid="none" marker-end="none" stroke-miterlimit="4" stroke-dashoffset="0" id="path2694" d="m-549.590063,250.121189c3.17964,-0.56744 7.01083,6.09994 8.59012,14.94932l1.36595,7.65401c1.57928,8.84936 0.29093,16.4304 -2.88872,16.99785c-3.17965,0.56745 -7.01084,-6.09993 -8.59013,-14.9493l-1.36596,-7.65401c-1.57929,-8.84937 -0.2909,-16.43041 2.88874,-16.99787z"/>
     <path fill="#000000" fill-rule="nonzero" stroke="#5f3f31" stroke-width="1.265673" marker-start="none" marker-mid="none" marker-end="none" stroke-miterlimit="4" stroke-dashoffset="0" id="path2696" d="m-543.075093,248.958529c3.17963,-0.56745 7.01082,6.09993 8.5901,14.9493l1.36597,7.654c1.57928,8.84937 0.29092,16.43041 -2.88872,16.99786c-3.17965,0.56745 -7.01085,-6.09994 -8.59015,-14.9493l-1.36595,-7.65402c-1.57929,-8.84937 -0.2909,-16.43041 2.88875,-16.99784z"/>
     <path fill="#000000" fill-rule="nonzero" stroke="#5f3f31" stroke-width="1.265673" marker-start="none" marker-mid="none" marker-end="none" stroke-miterlimit="4" stroke-dashoffset="0" id="path2698" d="m-536.560123,247.795839c3.17963,-0.56745 7.01082,6.09994 8.5901,14.94931l1.36597,7.654c1.57928,8.84938 0.29091,16.43041 -2.88874,16.99786c-3.17963,0.56745 -7.01084,-6.09992 -8.59013,-14.94931l-1.36595,-7.654c-1.57929,-8.84938 -0.2909,-16.4304 2.88875,-16.99786z"/>
     <path fill="#000000" fill-rule="nonzero" stroke="#5f3f31" stroke-width="1.265673" marker-start="none" marker-mid="none" marker-end="none" stroke-miterlimit="4" stroke-dashoffset="0" id="path2700" d="m-530.045173,246.633159c3.17965,-0.56745 7.01083,6.09993 8.59012,14.94931l1.36595,7.65401c1.57929,8.84937 0.29092,16.4304 -2.88873,16.99785c-3.17964,0.56745 -7.01084,-6.09993 -8.59013,-14.94931l-1.36595,-7.654c-1.57929,-8.84936 -0.29089,-16.43041 2.88874,-16.99786z"/>
     <path fill="#000000" fill-rule="nonzero" stroke="#5f3f31" stroke-width="1.265673" marker-start="none" marker-mid="none" marker-end="none" stroke-miterlimit="4" stroke-dashoffset="0" id="path2702" d="m-523.530203,245.470479c3.17964,-0.56744 7.01083,6.09993 8.59011,14.9493l1.36596,7.65402c1.57929,8.84937 0.29091,16.4304 -2.88873,16.99785c-3.17965,0.56745 -7.01085,-6.09993 -8.59014,-14.94931l-1.36595,-7.654c-1.57929,-8.84937 -0.2909,-16.43041 2.88875,-16.99786z"/>
     <path fill="#000000" fill-rule="nonzero" stroke="#5f3f31" stroke-width="1.265673" marker-start="none" marker-mid="none" marker-end="none" stroke-miterlimit="4" stroke-dashoffset="0" id="path2704" d="m-517.015253,244.307799c3.17965,-0.56744 7.01084,6.09994 8.59012,14.9493l1.36596,7.65401c1.57929,8.84938 0.29092,16.43041 -2.88873,16.99786c-3.17964,0.56745 -7.01084,-6.09994 -8.59013,-14.9493l-1.36595,-7.65401c-1.57929,-8.84938 -0.2909,-16.43041 2.88873,-16.99786z"/>
     <path fill="#000000" fill-rule="nonzero" stroke="#5f3f31" stroke-width="1.265673" marker-start="none" marker-mid="none" marker-end="none" stroke-miterlimit="4" stroke-dashoffset="0" id="path2706" d="m-510.500283,243.145119c3.17965,-0.56745 7.01083,6.09993 8.59011,14.94931l1.36596,7.65399c1.57929,8.84939 0.29092,16.43042 -2.88872,16.99787c-3.17965,0.56744 -7.01085,-6.09992 -8.59014,-14.94931l-1.36595,-7.654c-1.57929,-8.84938 -0.29091,-16.43041 2.88874,-16.99786z"/>
     <path fill="#000000" fill-rule="nonzero" stroke="#5f3f31" stroke-width="1.265673" marker-start="none" marker-mid="none" marker-end="none" stroke-miterlimit="4" stroke-dashoffset="0" id="path2708" d="m-503.985323,241.982439c3.17965,-0.56746 7.01083,6.09993 8.59012,14.94931l1.36595,7.65401c1.57929,8.84937 0.29092,16.43039 -2.88872,16.99785c-3.17965,0.56745 -7.01085,-6.09993 -8.59013,-14.9493l-1.36597,-7.65401c-1.57928,-8.84937 -0.2909,-16.43041 2.88875,-16.99786z"/>
     <path fill="#000000" fill-rule="nonzero" stroke="#5f3f31" stroke-width="1.265673" marker-start="none" marker-mid="none" marker-end="none" stroke-miterlimit="4" stroke-dashoffset="0" id="path2710" d="m-497.470363,240.819749c3.17964,-0.56743 7.01084,6.09994 8.59013,14.94931l1.36594,7.65401c1.5793,8.84938 0.29092,16.43041 -2.88872,16.99785c-3.17964,0.56746 -7.01084,-6.09993 -8.59012,-14.94929l-1.36597,-7.65401c-1.57928,-8.84937 -0.2909,-16.43041 2.88874,-16.99787z"/>
     <path fill="#000000" fill-rule="nonzero" stroke="#5f3f31" stroke-width="1.265673" marker-start="none" marker-mid="none" marker-end="none" stroke-miterlimit="4" stroke-dashoffset="0" id="path2712" d="m-490.955403,239.657089c3.17965,-0.56746 7.01083,6.09992 8.59012,14.94929l1.36596,7.65401c1.57929,8.84937 0.29092,16.43041 -2.88873,16.99786c-3.17964,0.56744 -7.01083,-6.09994 -8.59013,-14.9493l-1.36595,-7.65401c-1.57929,-8.84938 -0.29091,-16.43042 2.88873,-16.99785z"/>
     <path fill="#000000" fill-rule="nonzero" stroke="#5f3f31" stroke-width="1.265673" marker-start="none" marker-mid="none" marker-end="none" stroke-miterlimit="4" stroke-dashoffset="0" id="path2714" d="m-484.440433,238.494399c3.17964,-0.56745 7.01083,6.09993 8.59012,14.94931l1.36596,7.65399c1.57928,8.84938 0.2909,16.43042 -2.88873,16.99787c-3.17965,0.56744 -7.01086,-6.09993 -8.59013,-14.94931l-1.36597,-7.654c-1.57928,-8.84937 -0.29089,-16.43042 2.88875,-16.99786z"/>
     <path fill="#000000" fill-rule="nonzero" stroke="#5f3f31" stroke-width="1.265673" marker-start="none" marker-mid="none" marker-end="none" stroke-miterlimit="4" stroke-dashoffset="0" id="path2716" d="m-477.925473,237.331719c3.17965,-0.56746 7.01083,6.09993 8.59012,14.94931l1.36595,7.65401c1.57929,8.84937 0.29092,16.43039 -2.88872,16.99785c-3.17964,0.56745 -7.01085,-6.09993 -8.59013,-14.9493l-1.36596,-7.65401c-1.57929,-8.84937 -0.2909,-16.43041 2.88874,-16.99786z"/>
     <path fill="#000000" fill-rule="nonzero" stroke="#5f3f31" stroke-width="1.265673" marker-start="none" marker-mid="none" marker-end="none" stroke-miterlimit="4" stroke-dashoffset="0" id="path2718" d="m-471.410503,236.169029c3.17964,-0.56744 7.01083,6.09995 8.59011,14.94932l1.36596,7.654c1.57928,8.84937 0.29092,16.43041 -2.88872,16.99786c-3.17965,0.56745 -7.01086,-6.09993 -8.59015,-14.9493l-1.36594,-7.65401c-1.5793,-8.84938 -0.29091,-16.43042 2.88874,-16.99787z"/>
     <path fill="#000000" fill-rule="nonzero" stroke="#5f3f31" stroke-width="1.265673" marker-start="none" marker-mid="none" marker-end="none" stroke-miterlimit="4" stroke-dashoffset="0" id="path2720" d="m-464.895543,235.006359c3.17964,-0.56745 7.01083,6.09994 8.59012,14.9493l1.36596,7.65401c1.57928,8.84937 0.29091,16.4304 -2.88874,16.99786c-3.17963,0.56745 -7.01085,-6.09994 -8.59013,-14.9493l-1.36595,-7.65402c-1.57929,-8.84937 -0.2909,-16.43041 2.88874,-16.99785z"/>
     <path fill="#000000" fill-rule="nonzero" stroke="#5f3f31" stroke-width="1.265673" marker-start="none" marker-mid="none" marker-end="none" stroke-miterlimit="4" stroke-dashoffset="0" id="path2722" d="m-458.380593,233.843679c3.17966,-0.56745 7.01084,6.09993 8.59013,14.94931l1.36595,7.654c1.57928,8.84938 0.29093,16.43041 -2.88872,16.99786c-3.17965,0.56745 -7.01085,-6.09994 -8.59013,-14.94931l-1.36597,-7.654c-1.57927,-8.84937 -0.29089,-16.43042 2.88874,-16.99786z"/>
     <path fill="#000000" fill-rule="nonzero" stroke="#5f3f31" stroke-width="1.265673" marker-start="none" marker-mid="none" marker-end="none" stroke-miterlimit="4" stroke-dashoffset="0" id="path2724" d="m-451.865623,232.680989c3.17965,-0.56745 7.01084,6.09994 8.59012,14.94931l1.36596,7.65402c1.57928,8.84936 0.29091,16.4304 -2.88873,16.99785c-3.17964,0.56744 -7.01084,-6.09993 -8.59013,-14.94932l-1.36597,-7.654c-1.57928,-8.84936 -0.2909,-16.4304 2.88875,-16.99786z"/>
     <path fill="#000000" fill-rule="nonzero" stroke="#5f3f31" stroke-width="1.265673" marker-start="none" marker-mid="none" marker-end="none" stroke-miterlimit="4" stroke-dashoffset="0" id="path2726" d="m-445.350653,231.518309c3.17964,-0.56745 7.01083,6.09995 8.59011,14.94931l1.36596,7.65401c1.57929,8.84937 0.29092,16.43041 -2.88873,16.99786c-3.17963,0.56744 -7.01084,-6.09993 -8.59013,-14.9493l-1.36596,-7.65402c-1.57928,-8.84937 -0.2909,-16.43041 2.88875,-16.99786z"/>
     <path fill="#000000" fill-rule="nonzero" stroke="#5f3f31" stroke-width="1.265673" marker-start="none" marker-mid="none" marker-end="none" stroke-miterlimit="4" stroke-dashoffset="0" id="path2728" d="m-438.835693,230.355629c3.17964,-0.56744 7.01083,6.09994 8.59011,14.94931l1.36597,7.654c1.57928,8.84937 0.29092,16.43042 -2.88873,16.99787c-3.17965,0.56745 -7.01084,-6.09993 -8.59014,-14.94931l-1.36595,-7.65401c-1.57928,-8.84937 -0.2909,-16.43041 2.88874,-16.99786z"/>
     <path fill="#000000" fill-rule="nonzero" stroke="#5f3f31" stroke-width="1.265673" marker-start="none" marker-mid="none" marker-end="none" stroke-miterlimit="4" stroke-dashoffset="0" id="path2730" d="m-432.320723,229.192959c3.17964,-0.56746 7.01083,6.09993 8.5901,14.9493l1.36597,7.65401c1.57928,8.84938 0.29091,16.4304 -2.88873,16.99786c-3.17965,0.56745 -7.01084,-6.09994 -8.59013,-14.94931l-1.36597,-7.65401c-1.57928,-8.84937 -0.2909,-16.43041 2.88876,-16.99785z"/>
     <path fill="#000000" fill-rule="nonzero" stroke="#5f3f31" stroke-width="1.265673" marker-start="none" marker-mid="none" marker-end="none" stroke-miterlimit="4" stroke-dashoffset="0" id="path2732" d="m-425.805763,228.030269c3.17964,-0.56744 7.01083,6.09994 8.59011,14.94931l1.36596,7.654c1.57929,8.84939 0.29091,16.43042 -2.88872,16.99786c-3.17965,0.56745 -7.01085,-6.09993 -8.59014,-14.94931l-1.36596,-7.65399c-1.57928,-8.84938 -0.2909,-16.43041 2.88875,-16.99787z"/>
     <path fill="#000000" fill-rule="nonzero" stroke="#5f3f31" stroke-width="1.265673" marker-start="none" marker-mid="none" marker-end="none" stroke-miterlimit="4" stroke-dashoffset="0" id="path2734" d="m-419.290803,226.867599c3.17965,-0.56745 7.01082,6.09993 8.59011,14.9493l1.36596,7.65401c1.57929,8.84937 0.29092,16.43041 -2.88873,16.99786c-3.17964,0.56743 -7.01084,-6.09993 -8.59014,-14.94931l-1.36594,-7.654c-1.5793,-8.84938 -0.29091,-16.43042 2.88874,-16.99786z"/>
     <path fill="#000000" fill-rule="nonzero" stroke="#5f3f31" stroke-width="1.265673" marker-start="none" marker-mid="none" marker-end="none" stroke-miterlimit="4" stroke-dashoffset="0" id="path2736" d="m-412.775833,225.704919c3.17963,-0.56745 7.01082,6.09993 8.59011,14.9493l1.36596,7.654c1.57929,8.84938 0.29091,16.43041 -2.88873,16.99787c-3.17965,0.56745 -7.01085,-6.09994 -8.59014,-14.94931l-1.36595,-7.654c-1.57929,-8.84938 -0.2909,-16.43042 2.88875,-16.99786z"/>
     <path fill="#000000" fill-rule="nonzero" stroke="#5f3f31" stroke-width="1.265673" marker-start="none" marker-mid="none" marker-end="none" stroke-miterlimit="4" stroke-dashoffset="0" id="path2738" d="m-406.260883,224.542239c3.17965,-0.56746 7.01083,6.09992 8.59013,14.94931l1.36594,7.65399c1.5793,8.84938 0.29092,16.43041 -2.88872,16.99786c-3.17964,0.56746 -7.01084,-6.09993 -8.59013,-14.94931l-1.36596,-7.654c-1.57929,-8.84937 -0.2909,-16.4304 2.88874,-16.99785z"/>
     <path fill="#000000" fill-rule="nonzero" stroke="#5f3f31" stroke-width="1.265673" marker-start="none" marker-mid="none" marker-end="none" stroke-miterlimit="4" stroke-dashoffset="0" id="path2740" d="m-399.745913,223.379549c3.17964,-0.56744 7.01082,6.09994 8.59011,14.94932l1.36596,7.65399c1.57929,8.84938 0.29092,16.43042 -2.88872,16.99786c-3.17965,0.56745 -7.01086,-6.09992 -8.59014,-14.9493l-1.36595,-7.654c-1.5793,-8.84939 -0.29091,-16.43042 2.88874,-16.99787z"/>
     <path fill="#000000" fill-rule="nonzero" stroke-width="0.765" marker-start="none" marker-mid="none" marker-end="none" stroke-miterlimit="4" stroke-dashoffset="0" id="path2742" d="m-554.221103,294.593259c-6.64344,0.16757 -12.34354,-2.05337 -12.72342,-4.95743c-0.37989,-2.90398 4.70352,-5.39692 11.34696,-5.56448c6.42789,-0.16213 6.20136,-8.25166 7.87737,1.80342c1.37329,8.23887 0.29757,9.28034 -6.33142,9.45664"/>
     <path fill="#000000" fill-rule="nonzero" stroke-width="8.3" marker-start="none" marker-mid="none" marker-end="none" stroke-miterlimit="4" stroke-dashoffset="0" filter="url(#filter3321)" id="path2744" d="m-559.968251,259.51732l-2.051954,-0.62566l0.755469,13.515232l-2.35118,-13.289907l-1.861662,1.178296l0.60374,-2.247421l-12.526877,1.135468l12.343617,-2.872766l-1.053197,-2.013447l2.051952,0.625662l-0.683968,-13.013818l2.27968,12.78849l1.861662,-1.178294l-0.603738,2.247419l12.229616,-0.293301l-12.046359,2.030599l1.053199,2.013447z"/>
     <path fill="#000000" fill-rule="evenodd" stroke-width="1.72443" stroke-miterlimit="4" id="path2754" clip-path="url(#clipPath4786)" d="m-401.858923,155.612358c-4.976228,-0.601348 -10.274941,-0.005951 -14.699813,2.038431c-12.312682,5.688723 -24.384921,24.632696 5.437543,80.42752c0.168319,0.33667 17.247266,27.542541 19.110262,30.580034c2.980815,4.85999 14.039752,38.618595 11.860232,49.142112c0,0 -4.310891,-7.328751 -13.116017,-8.404666c-8.805161,-1.075903 -13.500859,1.179953 -12.930597,11.140318c0.570275,9.960348 21.818852,17.362093 34.131534,11.67337c12.312697,-5.688725 25.26249,-23.851107 -4.559989,-79.64593c-0.176724,-0.353509 -18.145311,-28.357547 -19.98781,-31.361633c-2.969158,-4.840999 -13.947692,-38.322547 -11.879474,-48.984677c0.358008,0.57114 6.436552,8.382414 14.966528,9.424688c8.805132,1.075907 11.345222,-4.224551 10.774962,-14.184901c-0.365327,-6.380849 -10.236684,-10.772716 -19.107361,-11.844667z"/>
     <path fill="#000000" fill-rule="evenodd" stroke-width="1.72443" stroke-miterlimit="4" filter="url(#filter6541)" id="path2756" d="m-418.241032,169.369574c-7.995699,15.906724 0.692008,33.740036 6.438553,48.866269c12.032678,26.625299 33.381619,49.389439 37.731315,79.036887c1.919176,8.478076 3.786493,17.855211 0.452959,26.215514c9.684476,-6.334139 6.842555,-19.380204 5.337608,-29.078336c-6.142699,-28.562054 -26.570449,-50.799803 -38.546702,-76.807503c-5.750435,-13.560069 -9.900268,-28.419732 -9.927012,-43.057249c-0.348182,-2.228782 1.857211,-7.633237 1.040214,-7.892646c-1.024489,0.740098 -1.822494,1.622096 -2.526936,2.717063zm12.94868,-5.67755c4.797771,2.758152 7.671254,11.681084 14.22647,9.22127c2.335763,-6.002408 -5.604946,-8.751802 -10.157747,-8.970522c-1.178089,-0.035518 -3.279014,-0.483544 -4.068723,-0.250749zm7.37059,154.67846c0.642212,5.886201 10.223959,7.466211 13.099918,7.409436c-3.092333,-2.811473 -4.067823,-7.818068 -8.926471,-8.365135c-1.306159,-0.291988 -3.283312,-0.391322 -4.173447,0.955699z"/>
     <path fill="#000000" stroke-width="15.117" stroke-miterlimit="4" id="rect2760" clip-path="url(#clipPath11119)" d="m-420.644522,246.904887l22.703952,-29.715219l29.715219,22.703952l-22.703952,29.715219l-29.715219,-22.703952z"/>
     <path opacity="0.888889" fill="#000000" stroke-width="15.117" stroke-miterlimit="4" filter="url(#filter11105)" id="path2762" clip-path="url(#clipPath11115)" d="m-420.657291,246.906529l29.732763,22.717357l1.246922,-1.631987l-28.100776,-21.470435l21.470435,-28.100776l-1.631987,-1.246922l-22.717357,29.732763z"/>
     <path opacity="0.844444" fill="#000000" stroke-width="15.117" stroke-miterlimit="4" filter="url(#filter11073)" id="path2764" clip-path="url(#clipPath11111)" d="m-399.186857,218.805753l28.100776,21.470435l-21.470435,28.100776l1.631987,1.246922l22.717357,-29.732763l-29.732763,-22.717357l-1.246922,1.631987z"/>
     <path fill="#000000" stroke-width="13.901607" stroke-miterlimit="4" id="path2768" d="m-407.528563,238.177469c-2.82629,7.61218 1.86387,16.94062 9.70954,19.15654c6.50087,2.08628 14.29166,-0.82408 17.54617,-6.92923c3.19067,-5.6296 2.37424,-13.29771 -2.31543,-17.8583c-4.3421,-4.47064 -11.53442,-5.93442 -17.15708,-3.07956c-3.60555,1.73496 -6.55613,4.86296 -7.7832,8.71055z"/>
     <path opacity="0.431298" fill="#000000" stroke-width="5" stroke-miterlimit="4" id="path2770" d="m-400.267213,231.466049c-2.34218,6.62459 -2.51314,10.70226 1.36847,17.80401c3.15636,5.77484 7.87308,8.39771 7.2551,8.46672c-1.55229,0.17337 -12.25874,0.32003 -15.62156,-10.98755c-3.06772,-10.31529 6.31009,-16.82209 8.12084,-17.08786"/>
    </g>
   </g>
   <g id="svg_2">
    <g id="layer1" transform="matrix(0.8057349,-1.0705499,1.0705499,0.8057349,-463.13727,65.232307) ">
     <g id="g11138" transform="matrix(0.7664195,0,0,0.7664195,-4.7078914,247.90097) ">
      <path fill="#c3c3c3" fill-rule="nonzero" stroke="url(#linearGradient4429)" stroke-width="5.316681" marker-start="none" marker-mid="none" marker-end="none" stroke-miterlimit="4" stroke-dashoffset="0" id="rect7099" clip-path="url(#clipPath6467)" d="m-61.914701,-204.995178l-18.15625,36.71875c0,0 86.62225,86.50154 107.09375,192.625c3.25777,-1.81784 7.00684,-2.84375 11,-2.84375c12.46549,0 22.58608,10.09705 22.625,22.5625l0,0.0625c-0.00001,12.49033 -10.13467,22.625 -22.625,22.625c-2.33121,0 -4.57085,-0.34436 -6.6875,-1c0.15908,15.59682 -1.40731,31.39864 -5.125,47.25c20.21302,5.52426 76.63677,11.45003 107.34375,84.65625c21.88936,-75.16583 -12.90541,-263.97786 -195.46875,-402.65625z"/>
      <path fill="none" fill-rule="nonzero" stroke="#ffffff" stroke-width="16.917" marker-start="none" marker-mid="none" marker-end="none" stroke-miterlimit="4" stroke-dashoffset="0" filter="url(#filter6450)" id="path5425" clip-path="url(#clipPath6461)" d="m101.027139,204.732142c21.88936,-75.16583 -12.90541,-263.97786 -195.46875,-402.65625"/>
      <g id="g4743">
       <path fill="url(#radialGradient4431)" fill-rule="nonzero" stroke-width="3.3" marker-start="none" marker-mid="none" marker-end="none" stroke-miterlimit="4" stroke-dashoffset="0" id="path11077" d="m-179.904147,-290.982506c-8.528952,9.174481 -19.511271,12.834605 -24.536622,8.177417c-5.025351,-4.657187 -2.192933,-15.870153 6.328173,-25.051906c8.521106,-9.181753 19.50785,-12.859366 24.546507,-8.216514c5.038657,4.642852 2.223381,15.850064 -6.289858,25.039066"/>
       <path fill="url(#linearGradient4433)" fill-rule="nonzero" stroke="#5f3f31" stroke-width="1.232503" marker-start="none" marker-mid="none" marker-end="none" stroke-miterlimit="4" stroke-dashoffset="0" id="path15994" d="m-167.253535,-306.091456c2.30346,2.14163 -0.64059,9.02682 -6.60102,15.43767l-5.15531,5.54487c-5.96043,6.41084 -12.61329,9.8478 -14.91676,7.70617c-2.30347,-2.14163 0.64058,-9.02682 6.60101,-15.43767l5.1553,-5.54488c5.96043,-6.41084 12.61331,-9.84778 14.91678,-7.70616z"/>
       <path fill="url(#linearGradient4435)" fill-rule="nonzero" stroke="#5f3f31" stroke-width="1.232503" marker-start="none" marker-mid="none" marker-end="none" stroke-miterlimit="4" stroke-dashoffset="0" id="path15992" d="m-162.533835,-301.703336c2.30346,2.14162 -0.64059,9.02681 -6.60103,15.43765l-5.15529,5.54488c-5.96043,6.41084 -12.6133,9.8478 -14.91676,7.70617c-2.30347,-2.14163 0.64058,-9.02683 6.601,-15.43768l5.15531,-5.54488c5.96043,-6.41084 12.61331,-9.84778 14.91677,-7.70614z"/>
       <path fill="url(#linearGradient4437)" fill-rule="nonzero" stroke="#5f3f31" stroke-width="1.232503" marker-start="none" marker-mid="none" marker-end="none" stroke-miterlimit="4" stroke-dashoffset="0" id="path15990" d="m-157.814125,-297.315226c2.30346,2.14162 -0.6406,9.02681 -6.60103,15.43765l-5.15529,5.54488c-5.96044,6.41085 -12.61331,9.84779 -14.91677,7.70616c-2.30346,-2.14162 0.64057,-9.02682 6.60101,-15.43767l5.1553,-5.54487c5.96044,-6.41085 12.61331,-9.84778 14.91678,-7.70615z"/>
       <path fill="url(#linearGradient4439)" fill-rule="nonzero" stroke="#5f3f31" stroke-width="1.232503" marker-start="none" marker-mid="none" marker-end="none" stroke-miterlimit="4" stroke-dashoffset="0" id="path15988" d="m-153.094425,-292.927126c2.30347,2.14163 -0.64059,9.02681 -6.60102,15.43766l-5.15531,5.54487c-5.96043,6.41085 -12.61329,9.8478 -14.91676,7.70617c-2.30346,-2.14163 0.64058,-9.02682 6.60101,-15.43768l5.15531,-5.54486c5.96042,-6.41085 12.61331,-9.84778 14.91677,-7.70616z"/>
       <path fill="url(#linearGradient4441)" fill-rule="nonzero" stroke="#5f3f31" stroke-width="1.232503" marker-start="none" marker-mid="none" marker-end="none" stroke-miterlimit="4" stroke-dashoffset="0" id="path15986" d="m-148.374715,-288.539016c2.30346,2.14163 -0.64059,9.02681 -6.60102,15.43765l-5.15531,5.54488c-5.96043,6.41085 -12.6133,9.84779 -14.91676,7.70617c-2.30347,-2.14163 0.64058,-9.02683 6.60101,-15.43768l5.1553,-5.54487c5.96043,-6.41085 12.61331,-9.84778 14.91678,-7.70615z"/>
       <path fill="url(#linearGradient4443)" fill-rule="nonzero" stroke="#5f3f31" stroke-width="1.232503" marker-start="none" marker-mid="none" marker-end="none" stroke-miterlimit="4" stroke-dashoffset="0" id="path15984" d="m-143.655015,-284.150916c2.30346,2.14163 -0.64059,9.02682 -6.60102,15.43766l-5.1553,5.54488c-5.96043,6.41085 -12.6133,9.84779 -14.91677,7.70616c-2.30346,-2.14162 0.64059,-9.02682 6.60101,-15.43767l5.15531,-5.54487c5.96043,-6.41085 12.61331,-9.84778 14.91677,-7.70616z"/>
       <path fill="url(#linearGradient4445)" fill-rule="nonzero" stroke="#5f3f31" stroke-width="1.232503" marker-start="none" marker-mid="none" marker-end="none" stroke-miterlimit="4" stroke-dashoffset="0" id="path15982" d="m-138.935315,-279.762806c2.30347,2.14163 -0.64058,9.02681 -6.60102,15.43766l-5.15529,5.54487c-5.96044,6.41085 -12.61331,9.8478 -14.91677,7.70617c-2.30346,-2.14163 0.64057,-9.02682 6.60101,-15.43767l5.1553,-5.54487c5.96044,-6.41085 12.61331,-9.84779 14.91677,-7.70616z"/>
       <path fill="url(#linearGradient4447)" fill-rule="nonzero" stroke="#5f3f31" stroke-width="1.232503" marker-start="none" marker-mid="none" marker-end="none" stroke-miterlimit="4" stroke-dashoffset="0" id="path15980" d="m-134.215605,-275.374696c2.30347,2.14162 -0.64059,9.02681 -6.60102,15.43766l-5.15531,5.54487c-5.96043,6.41085 -12.61329,9.84779 -14.91676,7.70617c-2.30346,-2.14163 0.64058,-9.02683 6.60101,-15.43767l5.1553,-5.54488c5.96043,-6.41084 12.61331,-9.84778 14.91678,-7.70615z"/>
       <path fill="url(#linearGradient4449)" fill-rule="nonzero" stroke="#5f3f31" stroke-width="1.232503" marker-start="none" marker-mid="none" marker-end="none" stroke-miterlimit="4" stroke-dashoffset="0" id="path15978" d="m-129.495895,-270.986596c2.30345,2.14163 -0.64059,9.02682 -6.60102,15.43767l-5.15531,5.54486c-5.96043,6.41086 -12.6133,9.8478 -14.91676,7.70617c-2.30347,-2.14162 0.64058,-9.02682 6.60101,-15.43766l5.1553,-5.54488c5.96043,-6.41084 12.61331,-9.84778 14.91678,-7.70616z"/>
       <path fill="url(#linearGradient4451)" fill-rule="nonzero" stroke="#5f3f31" stroke-width="1.232503" marker-start="none" marker-mid="none" marker-end="none" stroke-miterlimit="4" stroke-dashoffset="0" id="path15976" d="m-124.776205,-266.598486c2.30347,2.14163 -0.64058,9.02681 -6.60101,15.43766l-5.1553,5.54487c-5.96043,6.41085 -12.6133,9.8478 -14.91677,7.70617c-2.30346,-2.14163 0.64059,-9.02682 6.60101,-15.43767l5.15531,-5.54487c5.96043,-6.41085 12.61331,-9.84779 14.91676,-7.70616z"/>
       <path fill="url(#linearGradient4453)" fill-rule="nonzero" stroke="#5f3f31" stroke-width="1.232503" marker-start="none" marker-mid="none" marker-end="none" stroke-miterlimit="4" stroke-dashoffset="0" id="path15974" d="m-120.056495,-262.210376c2.30347,2.14162 -0.64058,9.02681 -6.60102,15.43766l-5.15529,5.54487c-5.96044,6.41085 -12.61331,9.84779 -14.91677,7.70617c-2.30346,-2.14163 0.64057,-9.02683 6.60101,-15.43767l5.15529,-5.54488c5.96044,-6.41084 12.61333,-9.84778 14.91678,-7.70615z"/>
       <path fill="url(#linearGradient4455)" fill-rule="nonzero" stroke="#5f3f31" stroke-width="1.232503" marker-start="none" marker-mid="none" marker-end="none" stroke-miterlimit="4" stroke-dashoffset="0" id="path15972" d="m-115.336785,-257.822276c2.30347,2.14163 -0.64059,9.02682 -6.60102,15.43767l-5.15531,5.54487c-5.96043,6.41085 -12.61329,9.84779 -14.91676,7.70617c-2.30346,-2.14163 0.64058,-9.02683 6.60101,-15.43767l5.1553,-5.54488c5.96043,-6.41084 12.61331,-9.84778 14.91678,-7.70616z"/>
       <path fill="url(#linearGradient4457)" fill-rule="nonzero" stroke="#5f3f31" stroke-width="1.232503" marker-start="none" marker-mid="none" marker-end="none" stroke-miterlimit="4" stroke-dashoffset="0" id="path15970" d="m-110.617075,-253.434166c2.30346,2.14163 -0.6406,9.02682 -6.60103,15.43766l-5.1553,5.54488c-5.96043,6.41084 -12.6133,9.84779 -14.91676,7.70617c-2.30347,-2.14163 0.64057,-9.02684 6.601,-15.43768l5.15531,-5.54487c5.96043,-6.41085 12.61331,-9.84779 14.91678,-7.70616z"/>
       <path fill="url(#linearGradient4459)" fill-rule="nonzero" stroke="#5f3f31" stroke-width="1.232503" marker-start="none" marker-mid="none" marker-end="none" stroke-miterlimit="4" stroke-dashoffset="0" id="path15968" d="m-105.897375,-249.046056c2.30346,2.14162 -0.64059,9.02682 -6.60102,15.43766l-5.1553,5.54488c-5.96043,6.41084 -12.6133,9.84778 -14.91677,7.70616c-2.30346,-2.14162 0.64058,-9.02683 6.60101,-15.43767l5.15531,-5.54488c5.96043,-6.41084 12.61331,-9.84778 14.91677,-7.70615z"/>
       <path fill="url(#linearGradient4461)" fill-rule="nonzero" stroke="#5f3f31" stroke-width="1.232503" marker-start="none" marker-mid="none" marker-end="none" stroke-miterlimit="4" stroke-dashoffset="0" id="path15966" d="m-101.177675,-244.657956c2.30347,2.14163 -0.64058,9.02682 -6.60102,15.43767l-5.1553,5.54487c-5.96044,6.41084 -12.6133,9.8478 -14.91676,7.70617c-2.30347,-2.14163 0.64058,-9.02683 6.60101,-15.43767l5.15529,-5.54488c5.96044,-6.41084 12.61333,-9.84778 14.91678,-7.70616z"/>
       <path fill="url(#linearGradient4463)" fill-rule="nonzero" stroke="#5f3f31" stroke-width="1.232503" marker-start="none" marker-mid="none" marker-end="none" stroke-miterlimit="4" stroke-dashoffset="0" id="path15964" d="m-96.457965,-240.269846c2.30347,2.14163 -0.64059,9.02682 -6.60102,15.43766l-5.15531,5.54488c-5.96043,6.41084 -12.6133,9.84779 -14.91676,7.70617c-2.30346,-2.14163 0.64058,-9.02683 6.60102,-15.43768l5.15529,-5.54488c5.96043,-6.41084 12.61331,-9.84778 14.91678,-7.70615z"/>
       <path fill="url(#linearGradient4465)" fill-rule="nonzero" stroke="#5f3f31" stroke-width="1.232503" marker-start="none" marker-mid="none" marker-end="none" stroke-miterlimit="4" stroke-dashoffset="0" id="path15962" d="m-91.738255,-235.881736c2.30346,2.14162 -0.6406,9.02682 -6.60103,15.43766l-5.1553,5.54488c-5.96043,6.41084 -12.6133,9.84779 -14.91677,7.70616c-2.30345,-2.14162 0.64058,-9.02682 6.60101,-15.43767l5.15531,-5.54488c5.96043,-6.41084 12.61331,-9.84778 14.91678,-7.70615z"/>
       <path fill="url(#linearGradient4467)" fill-rule="nonzero" stroke="#5f3f31" stroke-width="1.232503" marker-start="none" marker-mid="none" marker-end="none" stroke-miterlimit="4" stroke-dashoffset="0" id="path15960" d="m-87.018555,-231.493636c2.30346,2.14163 -0.64059,9.02682 -6.60102,15.43766l-5.1553,5.54488c-5.96043,6.41084 -12.6133,9.8478 -14.91677,7.70617c-2.30347,-2.14163 0.64058,-9.02682 6.60101,-15.43768l5.15531,-5.54487c5.96043,-6.41084 12.61331,-9.84778 14.91677,-7.70616z"/>
       <path fill="url(#linearGradient4469)" fill-rule="nonzero" stroke="#5f3f31" stroke-width="1.232503" marker-start="none" marker-mid="none" marker-end="none" stroke-miterlimit="4" stroke-dashoffset="0" id="path15958" d="m-82.298855,-227.105516c2.30347,2.14162 -0.64058,9.02681 -6.60102,15.43765l-5.1553,5.54488c-5.96044,6.41085 -12.6133,9.84779 -14.91676,7.70617c-2.30347,-2.14163 0.64058,-9.02683 6.60101,-15.43768l5.1553,-5.54488c5.96043,-6.41084 12.61331,-9.84778 14.91677,-7.70614z"/>
       <path fill="url(#linearGradient4471)" fill-rule="nonzero" stroke="#5f3f31" stroke-width="1.232503" marker-start="none" marker-mid="none" marker-end="none" stroke-miterlimit="4" stroke-dashoffset="0" id="path15956" d="m-77.579145,-222.717416c2.30346,2.14163 -0.64059,9.02682 -6.60102,15.43766l-5.1553,5.54487c-5.96044,6.41086 -12.61331,9.8478 -14.91676,7.70617c-2.30347,-2.14162 0.64057,-9.02682 6.60101,-15.43767l5.15529,-5.54487c5.96044,-6.41085 12.61331,-9.84778 14.91678,-7.70616z"/>
       <path fill="url(#linearGradient4473)" fill-rule="nonzero" stroke="#5f3f31" stroke-width="1.232503" marker-start="none" marker-mid="none" marker-end="none" stroke-miterlimit="4" stroke-dashoffset="0" id="path15954" d="m-72.859445,-218.329306c2.30347,2.14163 -0.64059,9.02681 -6.60102,15.43765l-5.1553,5.54488c-5.96043,6.41085 -12.6133,9.8478 -14.91677,7.70617c-2.30345,-2.14163 0.64058,-9.02682 6.60101,-15.43768l5.15531,-5.54486c5.96043,-6.41086 12.61331,-9.84779 14.91677,-7.70616z"/>
       <path fill="url(#linearGradient4475)" fill-rule="nonzero" stroke="#5f3f31" stroke-width="1.232503" marker-start="none" marker-mid="none" marker-end="none" stroke-miterlimit="4" stroke-dashoffset="0" id="path15952" d="m-68.139735,-213.941196c2.30346,2.14162 -0.64059,9.02681 -6.60102,15.43765l-5.1553,5.54488c-5.96043,6.41085 -12.6133,9.84779 -14.91677,7.70617c-2.30347,-2.14163 0.64058,-9.02683 6.60101,-15.43768l5.1553,-5.54487c5.96043,-6.41085 12.61332,-9.84778 14.91678,-7.70615z"/>
       <path fill="url(#linearGradient4477)" fill-rule="nonzero" stroke="#5f3f31" stroke-width="1.232503" marker-start="none" marker-mid="none" marker-end="none" stroke-miterlimit="4" stroke-dashoffset="0" id="path15950" d="m-63.420035,-209.553096c2.30347,2.14163 -0.64058,9.02681 -6.60102,15.43767l-5.1553,5.54486c-5.96043,6.41086 -12.6133,9.8478 -14.91676,7.70617c-2.30347,-2.14162 0.64058,-9.02682 6.60101,-15.43767l5.1553,-5.54487c5.96043,-6.41085 12.61331,-9.84778 14.91677,-7.70616z"/>
       <path fill="url(#linearGradient4479)" fill-rule="nonzero" stroke="#5f3f31" stroke-width="1.232503" marker-start="none" marker-mid="none" marker-end="none" stroke-miterlimit="4" stroke-dashoffset="0" id="rect10025" d="m-58.700325,-205.164986c2.30346,2.14163 -0.6406,9.02681 -6.60103,15.43766l-5.15529,5.54487c-5.96044,6.41085 -12.61331,9.8478 -14.91676,7.70617c-2.30347,-2.14163 0.64056,-9.02683 6.601,-15.43767l5.1553,-5.54487c5.96044,-6.41086 12.61331,-9.84779 14.91678,-7.70616z"/>
       <path fill="url(#radialGradient4481)" fill-rule="nonzero" stroke-width="0.765" marker-start="none" marker-mid="none" marker-end="none" stroke-miterlimit="4" stroke-dashoffset="0" id="path8389" d="m-204.566845,-283.652326c-4.0207,-5.0708 -5.63061,-10.80631 -3.59356,-12.80246c2.03698,-1.99611 6.95339,0.4992 10.97408,5.57c3.89024,4.90627 10.05163,-0.00711 3.20974,7.18504c-5.60606,5.89307 -7.0463,5.66598 -11.06533,0.61154"/>
       <g id="svg_3">
        <path fill="#ffffff" fill-rule="nonzero" stroke-width="8.3" marker-start="none" marker-mid="none" marker-end="none" stroke-miterlimit="4" stroke-dashoffset="0" filter="url(#filter3321)" id="path2309" d="m-180.641517,-308.663934l-0.714806,-1.962899l-10.073114,8.502146l8.96337,-9.61174l-2.006938,-0.758468l2.102146,-0.846323l-8.219037,-9.081607l9.463425,7.921682l0.94982,-1.998489l0.714803,1.962899l9.724859,-8.152893l-8.615113,9.262485l2.006937,0.758469l-2.102143,0.846323l7.389718,9.343487l-8.634107,-8.183563l-0.949819,1.99849z"/>
       </g>
      </g>
      <g id="svg_4">
       <path fill="#ffffff" fill-rule="nonzero" stroke-width="8.3" marker-start="none" marker-mid="none" marker-end="none" stroke-miterlimit="4" stroke-dashoffset="0" filter="url(#filter3321)" id="path3325" d="m17.100407,-86.88638l0.581145,-3.251523l-16.247146,2.750664l15.839935,-5.19598l-1.579871,-2.745816l2.763535,0.672342l-2.432291,-19.270627l4.513456,18.783607l2.340697,-1.866796l-0.581148,3.25152l15.648062,-2.581278l-15.240849,5.026593l1.579869,2.745816l-2.763533,-0.67234l1.390701,18.908671l-3.471867,-18.421654l-2.340697,1.866799z"/>
      </g>
      <g id="svg_5">
       <g id="svg_6">
        <path fill="#ffffff" fill-rule="nonzero" stroke-width="8.3" marker-start="none" marker-mid="none" marker-end="none" stroke-miterlimit="4" stroke-dashoffset="0" filter="url(#filter3321)" id="path3327" d="m159.929356,177.689022l-0.254535,-3.333793l-18.891964,8.592126l17.676673,-10.790025l-2.726077,-2.056737l3.549804,-0.367059l-8.635224,-17.605405l11.015442,16.375538l2.287879,-2.649288l0.254531,3.333791l18.215409,-8.210076l-17.000115,10.407975l2.726075,2.056737l-3.5498,0.367061l7.265262,17.639566l-9.64548,-16.409701l-2.287878,2.649291z"/>
       </g>
      </g>
      <path opacity="0.372222" fill="#c3c3c3" fill-rule="nonzero" stroke-width="5.316681" marker-start="none" marker-mid="none" marker-end="none" stroke-miterlimit="4" stroke-dashoffset="0" id="path8980" d="m-77.070951,-168.651428c40.75142,43.76501 74.80026,94.80027 95.25,151.25c4.7712,12.46549 7.84757,26.50513 11.25,38.6875c13.90643,-6.18435 31.71648,3.90266 33.5,19.09375c2.99786,15.3686 -11.70754,30.65023 -27.1875,28.21875c-4.47342,-0.85908 -0.49837,8.21981 -2.13748,10.99718c-0.64006,10.76532 -2.06104,21.45424 -4.45627,31.97157c24.6348,5.09372 48.90069,13.51122 68.125,30.28125c-5.7797,-81.89645 -29.38443,-165.37259 -78.17497,-230.62626c-24.4149,-33.18367 -53.25297,-67.01998 -84.15961,-93.13291c-0.42708,0.84375 -11.58209,12.41542 -12.00917,13.25917z"/>
      <g id="g6545">
       <path fill="#666666" fill-rule="evenodd" stroke-width="1.72443" stroke-miterlimit="4" id="path3656" clip-path="url(#clipPath4786)" d="m-7.211501,-246.492658c-2.44614,-4.22389 -6.01225,-7.99789 -10.19403,-10.24349c-11.63626,-6.24862 -33.44495,-4.54805 -59.39237,51.32805c-0.16338,0.32811 -11.32965,29.54779 -12.60202,32.77601c-2.03578,5.16517 -21.82564,33.53819 -31.28975,38.00486c0,0 3.17772,-7.64571 -1.14134,-15.12657c-4.31909,-7.48088 -8.824,-9.81336 -16.23971,-3.537c-7.41569,6.27636 -0.7317,27.14316 10.90456,33.39178c11.63627,6.24863 33.35073,5.68853 59.29814,-50.18758c0.17156,-0.34451 11.43788,-30.72377 12.69626,-33.91648c2.02783,-5.14498 21.64921,-33.2932 31.15599,-37.92764c-0.23473,0.613 -2.75276,9.91659 1.43135,17.16367c4.31907,7.48086 9.93053,6.35329 17.34623,0.07694c4.75068,-4.02079 2.38722,-14.27301 -1.97331,-21.80255z"/>
       <path fill="#ffffff" fill-rule="evenodd" stroke-width="1.72443" stroke-miterlimit="4" filter="url(#filter6541)" id="path6490" d="m-27.508451,-251.182678c-17.05839,3.09374 -25.84616,20.29617 -34.25,33.625c-13.66959,24.95346 -18.87952,54.89438 -39.39955,75.63984c-5.47251,6.45787 -11.6749,13.40187 -20.1317,15.70391c10.59938,3.8258 19.08566,-6.02497 25.75,-12.875c18.62558,-21.50491 23.96539,-50.42085 37.1875,-74.96875c7.18301,-12.41473 16.31446,-24.34514 27.6875,-32.9375c1.53021,-1.57605 7.02659,-3.02493 6.75,-3.8125c-1.17576,-0.36371 -2.3293,-0.46811 -3.59375,-0.375zm12,6.75c0.66354,5.34804 -4.59626,12.80891 1.15625,16.46875c6.03796,-1.6976 3.52714,-9.48587 1.03125,-13.15625c-0.66224,-0.93741 -1.54393,-2.83439 -2.1875,-3.3125zm-116.03125,96.3125c-4.20368,3.94656 0.17795,12.32686 1.90625,14.53125c0.37663,-4.05235 3.70077,-7.74313 1.28125,-11.84375c-0.53769,-1.18724 -1.6182,-2.78373 -3.1875,-2.6875z"/>
      </g>
      <g id="g11125" transform="matrix(0.9999738,0.0072470447,-0.0072470447,0.9999738,-104.00128,-14.926588) ">
       <rect fill="#6b6b6b" stroke-width="15.117" stroke-miterlimit="4" id="rect10064" clip-path="url(#clipPath11119)" y="-192.824298" x="13.362049" height="36.416" width="36.416"/>
       <path opacity="0.888889" fill="#f9f9f9" stroke-width="15.117" stroke-miterlimit="4" filter="url(#filter11105)" id="rect10066" clip-path="url(#clipPath11115)" d="m13.353229,-192.833208l0,36.4375l2,0l0,-34.4375l34.4375,0l0,-2l-36.4375,0z"/>
       <path opacity="0.844444" fill="#241c1c" stroke-width="15.117" stroke-miterlimit="4" filter="url(#filter11073)" id="rect10071" clip-path="url(#clipPath11111)" d="m47.790729,-192.833208l0,34.4375l-34.4375,0l0,2l36.4375,0l0,-36.4375l-2,0z"/>
       <g id="g3394" transform="matrix(0.3265611,-0.106124,0.106124,0.3265611,121.5599,-111.83884) ">
        <path fill="url(#radialGradient4483)" stroke-width="13.901607" stroke-miterlimit="4" id="path5634" d="m-191.092165,-294.816972c-23.02442,-0.39802 -43.5673,20.92771 -42.11267,44.00244c0.53597,19.35496 15.65328,37.45897 35.04889,40.42073c18.06331,3.2385 37.80952,-6.16149 45.59745,-22.99931c7.87431,-15.82334 5.0223,-36.44237 -7.90627,-48.79821c-8.0344,-8.01332 -19.17928,-12.9635 -30.6274,-12.62565z"/>
        <path opacity="0.431298" fill="url(#linearGradient4485)" stroke-width="5" stroke-miterlimit="4" id="path5636" d="m-166.304095,-281.706212c-19.9268,-0.03223 -30.99666,3.34754 -46.34331,20.41483c-12.47924,13.87838 -15.05771,28.96516 -15.82387,27.37685c-1.92453,-3.98972 -12.39179,-32.49464 14.69491,-52.13177c24.70971,-17.91385 50.94198,1.05162 53.35691,5.64581"/>
       </g>
       <path opacity="0.744444" fill="#ffffff" fill-rule="nonzero" stroke-width="8.3" marker-start="none" marker-mid="none" marker-end="none" stroke-miterlimit="4" stroke-dashoffset="0" filter="url(#filter3321)" id="path11123" d="m28.541357,-178.398389l0.254859,-1.425944l-7.12513,1.206294l6.946549,-2.278678l-0.692847,-1.204168l1.211939,0.294853l-1.066673,-8.451065l1.979361,8.237484l1.026505,-0.818677l-0.25486,1.425943l6.862404,-1.13201l-6.683822,2.204394l0.692846,1.204168l-1.211938,-0.294852l0.609887,8.292331l-1.522575,-8.078751l-1.026505,0.818678z"/>
      </g>
     </g>
    </g>
   </g>
  </g>
 </g>
</svg>